PathFileType	4	(X/Y/Z)	G:\Shared drives\HPL_Drive\Nord Sprinting Study\Kristen_Nord_test\Trimmed_Nord000004.trc
DataRate	CameraRate	NumFrames	NumMarkers	Units	OrigDataRate	OrigDataStartFrame	OrigNumFrames
200.00	200.00	      5	52	mm	200.00	877	      1002
Frame#	Time	C7			R_Shoulder			L_Shoulder			Sternum			R_humerus			R_elbow_med			R_elbow_lat			R_forearm			R_wrist_radius			R_wrist_ulna			L_humerus			L_elbow_med			L_elbow_lat			L_forearm			L_wrist_radius			L_wrist_ulna			r.ASIS			r.PSIS			r_IC			L.ASIS			L.PSIS			l_IC			r_thigh1			r_thigh2			r_thigh3			r_thigh4			r_thigh5			r_knee			r_mknee			r_shank_antsup			r_sh2			r_sh3			r_sh4			r_ankle			r_mankle			r_calc			r_5meta			r_toe			L_thigh1			L_thigh2			L_thigh3			L_thigh4			L_knee			L_mknee			L_shank_antsup			L_sh2			L_sh3			L_ankle			L_mankle			L_calc			L_5meta			L_toe			
		X1	Y1	Z1	X2	Y2	Z2	X3	Y3	Z3	X4	Y4	Z4	X5	Y5	Z5	X6	Y6	Z6	X7	Y7	Z7	X8	Y8	Z8	X9	Y9	Z9	X10	Y10	Z10	X11	Y11	Z11	X12	Y12	Z12	X13	Y13	Z13	X14	Y14	Z14	X15	Y15	Z15	X16	Y16	Z16	X17	Y17	Z17	X18	Y18	Z18	X19	Y19	Z19	X20	Y20	Z20	X21	Y21	Z21	X22	Y22	Z22	X23	Y23	Z23	X24	Y24	Z24	X25	Y25	Z25	X26	Y26	Z26	X27	Y27	Z27	X28	Y28	Z28	X29	Y29	Z29	X30	Y30	Z30	X31	Y31	Z31	X32	Y32	Z32	X33	Y33	Z33	X34	Y34	Z34	X35	Y35	Z35	X36	Y36	Z36	X37	Y37	Z37	X38	Y38	Z38	X39	Y39	Z39	X40	Y40	Z40	X41	Y41	Z41	X42	Y42	Z42	X43	Y43	Z43	X44	Y44	Z44	X45	Y45	Z45	X46	Y46	Z46	X47	Y47	Z47	X48	Y48	Z48	X49	Y49	Z49	X50	Y50	Z50	X51	Y51	Z51	X52	Y52	Z52	

877	4.380	1200.92114	1069.40210	913.21576	1327.76160	1093.18945	878.48297	1061.34753	1107.79517	873.43793	1201.55408	1116.31287	780.33344	1489.95654	1008.88086	884.50159	1604.03674	920.53815	817.99646	1594.19678	917.72308	898.49438	1584.70410	1045.49243	912.38379	1547.80151	1155.40125	887.43109	1589.28235	1153.64941	912.92352	874.27075	1013.82721	858.96057	790.48621	943.66418	765.92651	778.82184	933.04736	844.00909	785.73926	1081.69446	864.18750	816.27496	1173.22668	855.87103	758.68298	1172.23413	857.59381	1319.20129	706.26215	568.49963	1264.42615	686.73016	755.76825	1349.35718	756.33392	662.86682	1090.45398	701.85980	559.53882	1148.63940	684.23859	748.12347	1060.11084	751.22705	640.71967	1375.17285	527.90863	436.76587	1375.29700	445.79224	356.07513	1382.84937	397.15646	362.88016	1386.98303	451.67581	511.06235	1370.88538	373.33179	424.27542	1370.13818	349.62296	302.96451	1244.89172	342.62067	317.06201	1391.30457	220.92180	318.56683	1374.28088	102.27257	331.94455	1390.02087	228.02437	395.46121	1372.86975	114.27159	414.50238	1359.12268	-61.73499	386.82974	1280.71875	-50.66064	356.82184	1299.76184	-80.58173	446.37527	1368.51245	-147.87440	297.60352	1337.23010	-125.35944	241.61342	1039.53247	532.36969	422.17020	1047.15881	437.73767	318.77084	1022.70972	449.29385	505.84836	1037.89893	356.56802	405.83322	1033.66162	336.87747	322.61569	1159.63403	329.04169	299.96722	1013.97949	224.54716	318.36215	1022.17572	238.53134	408.24429	1032.24866	116.88529	415.71475	1036.40442	-61.57678	396.25803	1104.78455	-48.91618	337.63208	1087.31726	-53.09771	438.62405	1032.80432	-179.58307	314.14218	1072.17871	-172.50609	255.27315	
878	4.385	1200.98291	1070.26245	912.05133	1327.73572	1093.97620	877.34692	1061.22913	1108.61963	872.37549	1201.59460	1117.01721	779.34412	1489.82910	1009.53528	883.47766	1603.70166	920.84552	817.09540	1594.01575	918.26099	897.60779	1584.64221	1046.06653	911.28632	1547.82825	1155.73450	886.14001	1589.35217	1154.24353	911.65131	874.24078	1014.66681	858.03680	790.48572	944.85577	764.94049	778.79828	933.81982	843.15033	784.79749	1082.63708	862.95142	816.14166	1174.08875	854.74371	758.57721	1172.98181	856.34216	1319.00781	706.77399	567.88116	1264.34375	687.48212	755.23395	1349.20544	756.96948	662.20129	1090.36206	702.30151	558.97314	1148.64136	684.97577	747.54529	1059.97620	751.76514	640.06531	1375.09729	528.17908	436.42441	1375.23132	445.95786	355.83484	1382.79443	397.29974	362.74158	1387.05896	452.11023	510.86655	1370.87854	373.57434	424.17163	1370.09863	349.66330	302.96747	1244.82361	342.69055	316.99774	1391.28748	220.97758	318.54764	1374.31812	102.32931	331.91275	1389.76538	228.38506	395.02927	1372.94763	114.34620	414.49216	1359.23877	-61.69678	386.81293	1280.84485	-50.59303	356.82333	1299.90503	-80.51815	446.38858	1368.65100	-147.83131	297.55170	1337.70117	-125.19572	241.74243	1039.33301	532.43854	421.80209	1047.01416	437.63339	318.46896	1022.67828	449.53973	505.68039	1037.91577	356.69281	405.79932	1034.74866	337.01053	321.99713	1159.68701	329.18936	299.91330	1014.09406	224.59953	318.36996	1022.17987	238.54396	408.22980	1032.22327	116.90000	415.64780	1036.40894	-61.62995	396.22937	1104.81189	-48.92336	337.64697	1087.24487	-53.12465	438.68002	1032.62134	-179.65231	313.78439	1072.30359	-172.52141	255.26671	
879	4.390	1200.95288	1071.17542	910.93341	1327.13379	1094.78113	875.50275	1061.34900	1109.24365	870.75122	1201.52893	1117.77930	778.17505	1489.63403	1010.21191	882.48761	1603.63257	921.30884	816.34271	1593.89929	918.82825	896.56781	1584.38086	1046.61792	910.07867	1547.93579	1156.44666	884.95294	1589.44128	1154.81311	910.30176	874.19989	1015.47668	857.05353	790.32007	944.89056	764.12366	778.70929	934.63007	842.32623	785.54034	1083.45154	862.01801	815.96661	1174.94849	853.54095	758.44910	1173.83643	855.12115	1318.43408	707.02899	567.25610	1264.32581	688.20734	754.65192	1348.64099	757.64252	661.38361	1090.14160	702.64758	558.56512	1148.50354	685.64099	747.10028	1059.92859	752.32623	639.41656	1375.00342	528.46667	436.09375	1375.19690	445.99655	355.65695	1382.72144	397.52829	362.55222	1386.98547	452.44385	510.62762	1370.88159	373.83139	424.07251	1370.07690	349.75952	303.00357	1244.77698	342.75333	316.92242	1391.31738	221.05035	318.53662	1374.35889	102.39046	331.90924	1390.04224	228.65240	395.01575	1373.00317	114.42873	414.51352	1359.38953	-61.64842	386.80276	1280.93445	-50.62313	356.89893	1300.06689	-80.47144	446.46323	1368.79138	-147.77762	297.57257	1337.86365	-125.14034	241.69879	1040.89160	532.50293	421.72079	1047.16382	437.74570	318.41858	1022.70111	449.82443	505.48862	1036.62805	356.60547	405.14481	1034.75427	337.00198	322.01950	1160.03113	329.63910	299.74075	1013.97980	224.42345	318.43546	1022.13928	238.52486	408.23541	1032.21765	116.85532	415.65048	1036.45105	-61.68005	396.23190	1104.84717	-48.94083	337.65723	1087.28857	-53.15923	438.66577	1033.00574	-179.67603	314.12482	1074.01050	-173.00159	254.36562	
880	4.395	1200.79321	1071.94177	909.75812	1327.05725	1095.58765	874.35632	1061.22546	1110.07617	869.67542	1201.47180	1118.54187	777.03619	1489.51294	1010.90436	881.47632	1603.24133	921.67999	815.24738	1593.60950	919.32300	895.79498	1584.56836	1047.26392	909.09875	1547.99817	1157.12769	883.68439	1589.53430	1155.36584	909.07550	874.09796	1016.34210	856.13971	790.33362	945.67896	763.33429	778.63690	935.43103	841.42151	784.52478	1084.40747	860.81378	815.85791	1175.77966	852.24585	758.29681	1174.62280	853.89563	1318.74683	707.74512	566.81940	1264.30945	688.90961	754.11310	1348.55396	758.20679	660.86517	1090.02649	703.00439	557.95654	1148.43103	686.34998	746.56976	1059.84631	752.77570	638.88281	1374.88623	528.71356	435.79990	1375.14478	446.12228	355.49881	1382.65186	397.62076	362.41458	1386.99780	452.74350	510.26166	1370.87268	374.07870	423.98761	1370.06335	349.77750	302.94586	1244.69653	342.81845	316.86176	1391.35620	221.14600	318.53186	1374.42041	102.47057	331.91071	1389.76904	228.51263	395.03238	1373.05823	114.45566	414.49927	1359.54797	-61.57884	386.77859	1281.08862	-50.58092	356.87485	1300.25439	-80.41965	446.43665	1368.88538	-147.75261	297.52979	1337.55591	-125.30099	241.61754	1041.10510	532.55957	421.33746	1047.07507	437.62531	318.38284	1022.72992	450.12433	505.29568	1036.47144	356.92346	404.45340	1034.79150	337.01318	321.99362	1159.52637	324.68356	300.90494	1014.05188	224.46730	318.31259	1022.17804	238.48460	408.19629	1032.23083	116.83574	415.67535	1036.48010	-61.73245	396.25894	1104.91858	-48.95691	337.68604	1087.30164	-53.18320	438.65756	1033.12122	-179.74286	314.10895	1074.13672	-173.00117	254.45740	
881	4.400	1200.79968	1073.03564	908.79810	1327.04944	1096.49353	873.22076	1061.11011	1111.00195	868.50421	1201.42603	1119.28357	775.83954	1489.37891	1011.57910	880.49194	1602.91919	921.95929	814.13916	1593.43091	919.90533	894.80017	1584.57654	1047.88770	908.09717	1548.08069	1157.71118	882.48352	1589.68970	1155.91943	907.73395	874.00549	1017.17975	855.17914	790.30054	947.05066	762.57495	778.58301	936.29590	840.60126	785.29425	1085.23291	859.95306	815.74103	1176.56531	851.06482	758.22473	1175.50183	852.70886	1318.68250	708.28479	566.30096	1264.24280	689.63782	753.57587	1348.53748	758.85522	660.13947	1090.14490	703.44617	557.21869	1148.41736	687.06628	745.99176	1059.75696	753.31708	638.21375	1374.77173	528.97485	435.44717	1375.10803	446.23880	355.32117	1382.05042	398.27240	361.90021	1386.98010	453.26480	510.22485	1371.37805	374.59882	424.01453	1370.04224	349.80353	302.95825	1244.65369	342.85635	316.80453	1391.37280	221.21030	318.54419	1374.44482	102.51981	331.90671	1389.80688	228.56151	395.04453	1373.11169	114.81477	414.19565	1359.66846	-61.52769	386.80954	1281.18591	-50.55395	356.94049	1300.40625	-80.36967	446.44427	1369.01074	-147.70833	297.54303	1337.59802	-125.27563	241.71559	1039.44946	532.78046	420.78961	1047.04333	437.61560	318.05173	1022.72540	450.36102	505.09900	1037.90332	357.07443	405.71445	1034.83618	337.01324	321.99860	1159.57361	324.78174	300.87735	1014.11133	224.43100	318.36594	1022.14063	238.42207	408.23486	1032.28589	116.78735	415.73984	1036.52966	-61.77392	396.26086	1104.94629	-48.98505	337.68918	1087.34119	-53.18296	438.68521	1033.25000	-179.78496	314.07565	1074.27588	-173.03400	254.46037	
